PathFileType	4	(X/Y/Z)	..\data\2014025\dynamic\2014025_C5_02.trc
DataRate	CameraRate	NumFrames	NumMarkers	Units	OrigDataRate	OrigDataStartFrame	OrigNumFrames
100.000000	100.000000	4	52	mm	100.000000	78	125
Frame#	Time	L_IAS			L_IPS			R_IPS			R_IAS			L_FTC			L_FLE			L_FME			L_FAX			L_TTC			L_FAL			L_TAM			L_FCC			L_FM1			L_FM2			L_FM5			R_FTC			R_FLE			R_FME			R_FAX			R_TTC			R_FAL			R_TAM			R_FCC			R_FM1			R_FM2			R_FM5			CV7			TV10			SXS			SJN			L_SIA			L_SRS			L_SAA			L_SAE			L_HLE			L_HME			L_UOA			L_RSP			L_UHE			L_HM2			L_HM5			R_SIA			R_SRS			R_SAA			R_SAE			R_HLE			R_HME			R_UOA			R_RSP			R_UHE			R_HM2			R_HM5			
		X1	Y1	Z1	X2	Y2	Z2	X3	Y3	Z3	X4	Y4	Z4	X5	Y5	Z5	X6	Y6	Z6	X7	Y7	Z7	X8	Y8	Z8	X9	Y9	Z9	X10	Y10	Z10	X11	Y11	Z11	X12	Y12	Z12	X13	Y13	Z13	X14	Y14	Z14	X15	Y15	Z15	X16	Y16	Z16	X17	Y17	Z17	X18	Y18	Z18	X19	Y19	Z19	X20	Y20	Z20	X21	Y21	Z21	X22	Y22	Z22	X23	Y23	Z23	X24	Y24	Z24	X25	Y25	Z25	X26	Y26	Z26	X27	Y27	Z27	X28	Y28	Z28	X29	Y29	Z29	X30	Y30	Z30	X31	Y31	Z31	X32	Y32	Z32	X33	Y33	Z33	X34	Y34	Z34	X35	Y35	Z35	X36	Y36	Z36	X37	Y37	Z37	X38	Y38	Z38	X39	Y39	Z39	X40	Y40	Z40	X41	Y41	Z41	X42	Y42	Z42	X43	Y43	Z43	X44	Y44	Z44	X45	Y45	Z45	X46	Y46	Z46	X47	Y47	Z47	X48	Y48	Z48	X49	Y49	Z49	X50	Y50	Z50	X51	Y51	Z51	X52	Y52	Z52	

79	0.78	1208.6279296875	881.0542602539065	-390.9802246093751	976.6621093750002	942.7381591796877	-316.3696289062501	983.888610839844	959.575134277344	-202.9228057861329	1199.158325195313	882.5335693359377	-121.5298461914063	1114.584716796875	818.9375610351565	-472.9806213378907	1276.333618164063	475.5592651367189	-418.6237792968751	1272.935791015625	454.2106933593751	-260.1937255859376	1267.883911132813	418.7430725097657	-423.039276123047	1337.873779296875	405.1534118652345	-369.2896118164063	1357.15380859375	73.70299530029298	-393.6028747558595	1374.367065429688	87.40548706054689	-306.4152221679688	1335.829711914063	14.66294384002686	-340.5264892578126	1515.9697265625	85.46334075927736	-317.5271301269532	1496.736206054688	95.5525588989258	-372.3231811523438	1471.449584960938	57.00300979614259	-411.2896728515626	1102.468505859375	821.5222778320315	-41.01523971557618	974.5950927734377	475.6978454589845	-122.1583023071289	996.1263427734377	469.2301025390626	-286.8281860351563	916.811706542969	418.5821533203126	-129.6966857910157	998.2629394531252	379.2698059082032	-181.7052459716797	807.9016723632815	102.8537750244141	-189.5747375488282	845.3123779296877	103.9094543457032	-272.3067932128907	764.7386474609376	64.61166381835939	-257.2823791503907	948.7796020507815	12.75355243682862	-232.8673248291016	940.5089111328127	39.07621383666993	-177.3424072265625	882.738220214844	24.35484695434571	-141.46484375	1058.062744140625	1397.597412109375	-273.9730834960938	984.2551269531252	1172.147216796875	-248.5311279296876	1244.552734375	1182.3583984375	-281.4281616210938	1175.125854492188	1322.456298828125	-281.0909118652344	970.0643310546877	1209.529296875	-345.3092346191407	1011.132751464844	1341.717529296875	-348.4023742675782	1042.57421875	1349.697265625	-429.9126281738282	1090.248657226563	1353.49560546875	-457.4143371582032	984.8258056640627	1059.654296875	-526.5346069335939	984.6000976562502	1038.778198242188	-434.3129272460939	967.3786621093752	1045.156372070313	-479.3065185546876	1009.244506835938	812.1167602539065	-540.8479003906251	934.1798095703127	834.6336059570315	-563.3826904296876	991.583435058594	734.3892822265626	-574.0263061523439	909.565124511719	784.260681152344	-585.7856445312501	994.015319824219	1213.920288085938	-142.5577697753907	1023.440612792969	1347.7060546875	-176.0106964111328	1076.629760742188	1364.07421875	-117.9330825805664	1128.3486328125	1371.846069335938	-107.9985275268555	1172.845825195313	1070.355712890625	14.8884449005127	1149.580444335938	1032.978637695313	-60.44667434692384	1167.127197265625	1023.751037597656	-11.10562896728516	1397.204345703125	942.926940917969	-25.36314392089844	1370.824584960938	920.1401367187502	31.53268432617188	1457.929809570313	893.859558105469	-7.180088520050051	1378.6318359375	867.9030761718752	45.78300476074219	
80	0.79	1229.815673828125	877.8794555664065	-391.550506591797	996.9851074218752	939.3216552734377	-320.8117980957032	1003.021240234375	957.5981445312502	-208.5573425292969	1217.117065429688	880.2238769531252	-119.7052612304688	1136.88671875	815.780212402344	-474.4849548339845	1295.610107421875	472.7758178710939	-418.5682983398439	1288.240844726563	449.4205322265626	-259.2523498535157	1288.537963867188	416.501190185547	-423.0804748535157	1358.359741210938	404.2944335937501	-368.0382690429688	1389.824829101563	73.45478820800783	-395.4451293945314	1405.272827148438	87.01062011718751	-307.8537597656251	1368.861572265625	13.70407676696778	-343.1034240722657	1547.490112304688	87.8512420654297	-316.5904541015626	1529.022216796875	97.60020446777347	-371.5826721191407	1505.070678710938	58.50056838989259	-411.1934204101564	1118.511474609375	821.0078125000002	-42.36817169189454	989.6851806640627	475.3585205078126	-121.7025527954102	1013.065979003906	467.0600891113282	-285.7345886230469	930.705993652344	419.4664611816407	-129.2559509277344	1011.149780273438	377.4697570800782	-180.3008880615235	810.8863525390627	107.5811004638672	-187.9183349609375	848.2568359375002	107.3306121826172	-270.5870361328126	766.5299682617189	71.74892425537111	-255.7058563232422	947.666931152344	11.99986267089844	-233.3332672119141	939.995544433594	38.39973831176759	-177.6284942626953	882.3524169921877	24.00512886047364	-141.2313385009766	1076.271484375	1394.79736328125	-275.0041198730469	1003.5361328125	1169.025390625	-249.1074676513672	1263.750854492188	1179.103149414063	-282.2062988281251	1194.1279296875	1319.559448242188	-282.1206359863282	989.1575317382815	1206.012939453125	-345.6887512207032	1029.698120117188	1338.569946289063	-349.3126220703126	1060.876220703125	1346.621215820313	-430.8376770019532	1108.449951171875	1350.3662109375	-458.4967346191407	998.4624633789065	1058.274658203125	-526.2158813476564	999.8992309570315	1036.703369140625	-434.0083312988282	981.9714355468752	1043.902099609375	-478.7296447753907	1018.031188964844	810.4045410156252	-542.2429199218751	942.8560180664065	834.5841064453127	-563.0598144531251	998.022644042969	733.0808105468751	-575.6009521484376	916.795837402344	785.1633300781252	-585.2391357421876	1013.2841796875	1211.367065429688	-142.9611968994141	1042.294677734375	1345.302612304688	-176.7042236328125	1095.357788085938	1362.087158203125	-119.08251953125	1147.171020507813	1369.973999023438	-109.5197677612305	1195.324951171875	1069.82177734375	14.60093593597412	1172.017456054688	1031.283935546875	-60.2767906188965	1190.41064453125	1022.451110839844	-11.21115493774414	1422.079345703125	947.420349121094	-28.69870948791505	1397.177368164063	924.2733154296877	28.69549751281739	1484.397216796875	900.335632324219	-11.19780540466309	1406.715087890625	872.3421630859377	43.15790557861329	
81	0.8	1251.065185546875	875.2476196289065	-392.1833801269532	1017.508544921875	936.1202392578127	-325.1882019042969	1022.415466308594	955.5533447265627	-214.1527709960938	1235.522094726563	878.3350830078127	-118.2650604248047	1159.214965820313	813.123474121094	-476.0357360839845	1315.465576171875	470.5205383300782	-418.6011657714845	1304.418579101563	445.4300842285157	-258.5786437988282	1309.458984375	414.6645812988282	-423.2434082031251	1378.6689453125	403.2969970703126	-366.8166809082032	1417.755615234375	73.32803344726564	-396.7456665039064	1431.547607421875	86.47824859619142	-308.8250732421876	1396.34716796875	13.46527671813965	-345.1864929199219	1574.032592773438	88.10733795166017	-314.9038391113282	1556.642456054688	97.70201110839847	-370.1499938964844	1533.512939453125	58.55062103271486	-410.4634704589845	1134.922119140625	820.6706542968752	-43.97724533081055	1006.471069335938	474.5585021972657	-120.8751754760742	1031.609497070313	464.214813232422	-284.2357482910157	946.300231933594	420.0121459960939	-128.3290100097657	1025.522216796875	375.2375793457032	-178.3687438964844	814.8143310546877	113.0420455932617	-185.8777313232422	852.0925903320315	111.2626571655274	-268.4031982421876	769.461120605469	80.03737640380861	-253.7821044921876	946.056091308594	11.37440299987793	-233.7697906494141	939.2690429687502	37.72476959228516	-177.8838958740235	881.9112548828127	24.09602546691895	-140.8825225830078	1094.751831054688	1392.1611328125	-276.3477478027344	1022.962829589844	1166.140502929688	-250.0423583984376	1283.037475585938	1176.074096679688	-283.0056762695313	1213.316772460938	1316.820434570313	-283.2586669921876	1008.469848632813	1202.783203125	-346.5881652832032	1048.522705078125	1335.684936523438	-350.5870361328126	1079.612915039063	1343.814819335938	-432.0509033203126	1127.119018554688	1347.502075195313	-459.799285888672	1012.947326660156	1057.04052734375	-526.1594848632814	1015.685607910156	1034.952758789063	-434.0342712402345	997.3025512695315	1042.77685546875	-478.5079040527345	1028.24951171875	808.9778442382815	-543.4486083984376	953.059265136719	834.5626220703127	-562.8007202148439	1006.158935546875	731.9808959960939	-576.7866821289064	925.7388305664065	785.9541015625002	-584.6608276367189	1032.526245117188	1208.955688476563	-143.8025512695313	1061.306274414063	1342.996948242188	-177.7513275146485	1114.053466796875	1360.222900390625	-120.4877548217774	1165.90478515625	1368.196655273438	-111.199462890625	1217.27392578125	1069.370727539063	14.10989761352539	1193.9765625	1029.82958984375	-60.42049789428712	1213.027465820313	1021.282836914063	-11.53818130493164	1445.930786132813	951.1064453125002	-31.55286407470704	1422.213012695313	927.7272949218752	26.2268295288086	1509.522094726563	905.7571411132815	-14.56522274017334	1433.216796875	876.0775146484377	40.89205169677735	
82	0.8100000000000001	1272.317626953125	873.2581787109377	-392.8576965332032	1038.151245117188	933.219665527344	-329.3065795898438	1042.015869140625	953.4018554687502	-219.411361694336	1254.410522460938	876.839294433594	-117.3911590576172	1181.5	811.1356201171877	-477.6224975585939	1335.880493164063	468.9045410156251	-418.7329101562501	1321.653686523438	442.4476318359376	-258.2456970214844	1330.583374023438	413.2743225097657	-423.5459289550782	1398.82568359375	402.220672607422	-365.7429199218751	1440.952880859375	73.13292694091798	-397.514862060547	1453.260375976563	85.66697692871095	-309.3351135253907	1418.343505859375	13.72401332855225	-346.7685546875001	1595.702026367188	86.1339569091797	-312.5986633300782	1579.680419921875	95.76960754394533	-368.1564025878907	1556.833129882813	57.06396865844728	-409.2338867187501	1151.85302734375	820.3767700195315	-45.7887306213379	1025.089721679688	473.2023925781251	-119.6930694580078	1051.860717773438	460.6782531738282	-282.3715515136719	963.742370605469	420.1652221679689	-126.9268493652344	1041.541748046875	372.5390319824219	-175.9355926513672	819.9678955078127	119.3238143920899	-183.5827331542969	857.1392822265627	115.7521896362305	-265.8482666015626	773.9034423828127	89.54189300537111	-251.6606750488282	944.1035766601565	11.01630878448487	-234.1082458496094	938.474060058594	37.18354034423829	-178.059310913086	881.5720214843752	24.88701438903809	-140.4430389404297	1113.524291992188	1389.765869140625	-278.0036926269532	1042.508544921875	1163.578125	-251.3129119873047	1302.394287109375	1173.365112304688	-283.8353271484376	1232.687377929688	1314.316528320313	-284.5004272460938	1027.988159179688	1199.919311523438	-347.9760437011719	1067.61181640625	1333.129516601563	-352.2034606933594	1098.788940429688	1341.321044921875	-433.5378417968751	1146.252685546875	1344.954467773438	-461.3168334960939	1028.322631835938	1055.958740234375	-526.3695068359376	1032.0166015625	1033.545532226563	-434.3672485351564	1013.400390625	1041.798095703125	-478.6264648437501	1039.98974609375	807.8083496093752	-544.4705200195314	964.8562011718752	834.5311279296877	-562.6292114257814	1016.098022460938	731.0445556640626	-577.6058349609376	936.4614868164065	786.573669433594	-584.0877075195314	1051.739990234375	1206.759399414063	-145.0558013916016	1080.466430664063	1340.8564453125	-179.139144897461	1132.744262695313	1358.524291992188	-122.1131057739258	1184.581298828125	1366.5634765625	-112.9988098144532	1238.621459960938	1068.970825195313	13.41756534576416	1215.409545898438	1028.609619140625	-60.87710189819337	1234.88916015625	1020.257080078125	-12.07772541046143	1468.733764648438	953.886657714844	-33.88041305541993	1445.881103515625	930.3714599609377	24.16988372802735	1533.275268554688	909.961364746094	-17.22866439819336	1458.0498046875	878.9555664062502	39.01441192626954	
